<svg xmlns="http://www.w3.org/2000/svg" width="132" height="138" fill="none"><g clip-path="url(#a)"><path fill="#071525" fill-opacity=".1" fill-rule="evenodd" d="m22.496-49.958-6.428 4.235-86.44 57L-87 22.23v43.124l12.229 8.03 4.4 2.923 86.439 57.009.318.181 6.11 4.045 6.118-4.045.318-.181 86.44-57.01 4.4-2.923L132 65.353V22.231l-16.628-10.953-86.44-57-6.436-4.236Zm-53.77 93.75-11.488-7.581-21.174-13.98 86.432-57.01 86.44 57.01-21.182 13.98-11.48 7.581-53.778 35.447-53.77-35.447Zm59.888 46.573.318-.172 58.822-38.811 11.568-7.59 16.05-10.6 4.4-2.932v27.59l-10.836 7.504-80.322 52.955V90.365Zm-92.55-25.011-10.835-7.409V30.26l4.4 2.932 16.04 10.6 11.57 7.59 58.829 38.81.318.173v27.944l-80.322-52.955Z" clip-rule="evenodd"/></g><defs><clipPath id="a"><path fill="#fff" d="M0 0h132v138H0z"/></clipPath></defs></svg>